<?xml version="1.0" encoding="utf-8"?>
<!-- Generator: Adobe Illustrator 24.0.1, SVG Export Plug-In . SVG Version: 6.00 Build 0)  -->
<svg version="1.1" id="Layer_1" xmlns="http://www.w3.org/2000/svg" xmlns:xlink="http://www.w3.org/1999/xlink" x="0px" y="0px"
	 viewBox="0 0 302.9 269" style="enable-background:new 0 0 302.9 269;" xml:space="preserve">
<style type="text/css">
	.Drop_x0020_Shadow{fill:none;}
	.Round_x0020_Corners_x0020_2_x0020_pt{fill:#FFFFFF;stroke:#000000;stroke-miterlimit:10;}
	.Live_x0020_Reflect_x0020_X{fill:none;}
	.Bevel_x0020_Soft{fill:url(#SVGID_1_);}
	.Dusk{fill:#FFFFFF;}
	.Foliage_GS{fill:#FFDD00;}
	.Pompadour_GS{fill-rule:evenodd;clip-rule:evenodd;fill:#44ADE2;}
</style>
<linearGradient id="SVGID_1_" gradientUnits="userSpaceOnUse" x1="-153.4108" y1="-301.7519" x2="-152.7037" y2="-301.0447">
	<stop  offset="0" style="stop-color:#DEDFE3"/>
	<stop  offset="0.1738" style="stop-color:#D8D9DD"/>
	<stop  offset="0.352" style="stop-color:#C9CACD"/>
	<stop  offset="0.5323" style="stop-color:#B4B5B8"/>
	<stop  offset="0.7139" style="stop-color:#989A9C"/>
	<stop  offset="0.8949" style="stop-color:#797C7E"/>
	<stop  offset="1" style="stop-color:#656B6C"/>
</linearGradient>
<g style="fill: #8DB9D4">
	<path d="M12,161.8c11.9,6.5,23.9,12.9,35.8,19.4c11.4,6.2,22.9,12.2,34.2,18.6c3.4,2,5.1,1.1,7.4-1.6
		c45.2-54.9,90.9-110.4,147.6-154c16-12.3,32.6-23.7,49.9-34.1c1.4-0.8,2.9-1.3,4.5-2C210.8,79.3,148.7,164.6,100,261
		c-29.9-33.3-59.2-66-88.6-98.6C11.6,162.2,11.8,162,12,161.8z"/>
</g>
</svg>
